<?xml version="1.0" encoding="UTF-8" standalone="no"?>
<svg
   xmlns:dc="http://purl.org/dc/elements/1.1/"
   xmlns:cc="http://creativecommons.org/ns#"
   xmlns:rdf="http://www.w3.org/1999/02/22-rdf-syntax-ns#"
   xmlns:svg="http://www.w3.org/2000/svg"
   xmlns="http://www.w3.org/2000/svg"
   xmlns:xlink="http://www.w3.org/1999/xlink"
   version="1.0"
   width="50"
   height="28"
   id="svg3169">
  <defs
     id="defs3171">
    <linearGradient
       id="linearGradient3538">
      <stop
         id="stop3540"
         style="stop-color:#ffffff;stop-opacity:1"
         offset="0" />
      <stop
         id="stop3542"
         style="stop-color:#ffdf91;stop-opacity:1"
         offset="1" />
    </linearGradient>
    <linearGradient
       id="linearGradient3203">
      <stop
         id="stop3205"
         style="stop-color:#000000;stop-opacity:1"
         offset="0" />
      <stop
         id="stop3207"
         style="stop-color:#000000;stop-opacity:0"
         offset="1" />
    </linearGradient>
    <linearGradient
       x1="8"
       y1="20"
       x2="8"
       y2="40"
       id="linearGradient3254"
       xlink:href="#linearGradient3203"
       gradientUnits="userSpaceOnUse"
       gradientTransform="matrix(0.7954951,-0.7954951,0.7071068,0.7071068,3.5402502,14.424404)" />
    <radialGradient
       cx="111.07143"
       cy="70.219322"
       r="13.928572"
       fx="111.07143"
       fy="70.219322"
       id="radialGradient3272"
       xlink:href="#linearGradient3538"
       gradientUnits="userSpaceOnUse" />
    <linearGradient
       id="linearGradient4224">
      <stop
         id="stop4226"
         style="stop-color:#fff09a;stop-opacity:1"
         offset="0" />
      <stop
         id="stop4228"
         style="stop-color:#ffffff;stop-opacity:1"
         offset="0.5" />
      <stop
         id="stop4230"
         style="stop-color:#ffffbf;stop-opacity:0"
         offset="1" />
    </linearGradient>
    <radialGradient
       cx="25"
       cy="26"
       r="15.875"
       fx="25"
       fy="26"
       id="radialGradient2382"
       xlink:href="#linearGradient4224"
       gradientUnits="userSpaceOnUse"
       gradientTransform="translate(4.9999999e-8,-12)" />
  </defs>
  <metadata
     id="metadata3174">
    <rdf:RDF>
      <cc:Work
         rdf:about="">
        <dc:format>image/svg+xml</dc:format>
        <dc:type
           rdf:resource="http://purl.org/dc/dcmitype/StillImage" />
        <dc:title></dc:title>
      </cc:Work>
    </rdf:RDF>
  </metadata>
  <g
     id="layer1">
    <path
       d="M 5,2e-7 5,14 c 0,5.45663 2.202995,10.39035 5.75,14 l 28.5,0 C 42.79701,24.39035 45,19.45663 45,14 L 45,2e-7 5,2e-7 z"
       id="path3513"
       style="color:#000000;fill:#333333;fill-opacity:1;fill-rule:nonzero;stroke:none;stroke-width:2;marker:none;visibility:visible;display:inline;overflow:visible;enable-background:accumulate" />
    <g
       transform="translate(0,-11)"
       id="g3250">
      <path
         d="m 25,14 c -2.484,0 -5.734,0.008 -7.363,1.637 C 16.008,17.266 16,20.516 16,23 l 1,2 c 0,-4.416 3.583999,-8 8,-8 4.416001,0 8,3.584 8,8 l 1,-2 C 34,20.516 33.992,17.266 32.363,15.637 30.734,14.008 27.484,14 25,14 z"
         id="path3185"
         style="color:#000000;fill:#000000;fill-opacity:1;fill-rule:nonzero;stroke:none;stroke-width:2;marker:none;visibility:visible;display:inline;overflow:visible;enable-background:accumulate" />
      <path
         d="M 30.410307,15.838617 44.552443,29.980753 35.188482,38.344714 27.753453,38.637607 17.682385,28.566539 30.410307,15.838617 z"
         id="rect3192"
         style="color:#000000;fill:url(#linearGradient3254);fill-opacity:1;fill-rule:nonzero;stroke:none;stroke-width:2;marker:none;visibility:visible;display:inline;overflow:visible;enable-background:accumulate" />
    </g>
  </g>
  <g
     id="layer2"
     style="display:inline">
     <animate id="wyl" attributeType="CSS" attributeName="opacity" to="0" dur="0.5s" begin="0.5s; wl.end+0.5s" fill="freeze" />
     <animate id="wl" attributeType="CSS" attributeName="opacity" to="1" dur="0.5s" begin="wyl.end+0.1s" fill="freeze" />
    <g
       id="g3039">
      <path
         d="m 125,70.219322 a 13.928573,13.928573 0 1 1 -27.857145,0 13.928573,13.928573 0 1 1 27.857145,0 z"
         transform="matrix(0.574359,0,0,0.574359,-38.794873,-26.331097)"
         id="path3140"
         style="color:#000000;fill:url(#radialGradient3272);fill-opacity:1;fill-rule:nonzero;stroke:none;stroke-width:1;marker:none;visibility:visible;display:inline;overflow:visible;enable-background:accumulate" />
      <path
         d="m 20.75,-1.875 c -1.460358,0.3913 -2.659431,0.900314 -3.96875,1.65625 L 20.4375,6.125 C 21.119576,5.729603 21.876984,5.426978 22.65625,5.21875 L 20.75,-1.875 z m 8.5,0 -1.90625,7.09375 c 0.779266,0.208228 1.536674,0.510853 2.21875,0.90625 l 3.65625,-6.34375 C 31.90943,-0.974688 30.710357,-1.483698 29.25,-1.875 z M 10.78125,5.78125 C 10.025312,7.09057 9.5163018,8.289642 9.1250001,9.75 L 16.21875,11.65625 C 16.426978,10.876984 16.729603,10.119576 17.125,9.4375 L 10.78125,5.78125 z m 28.4375,0 L 32.875,9.4375 c 0.395397,0.682076 0.698022,1.439484 0.90625,2.21875 L 40.875,9.75 C 40.4837,8.289642 39.974685,7.09057 39.21875,5.78125 z m -23,10.5625 L 9.1250001,18.25 c 0.3912993,1.460358 0.9003139,2.65943 1.6562499,3.96875 L 17.125,18.5625 c -0.395397,-0.682076 -0.698022,-1.439484 -0.90625,-2.21875 z m 17.5625,0 c -0.208228,0.779266 -0.510853,1.536674 -0.90625,2.21875 l 6.34375,3.65625 C 39.974688,20.90943 40.483698,19.710357 40.875,18.25 L 33.78125,16.34375 z M 20.4375,21.875 16.78125,28.21875 c 1.30932,0.755938 2.508394,1.264946 3.96875,1.65625 l 1.90625,-7.09375 C 21.876984,22.573022 21.119576,22.270397 20.4375,21.875 z m 9.125,0 c -0.682076,0.395397 -1.439484,0.698022 -2.21875,0.90625 L 29.25,29.875 c 1.460358,-0.3913 2.659429,-0.900315 3.96875,-1.65625 L 29.5625,21.875 z"
         id="path4222"
         style="color:#000000;fill:url(#radialGradient2382);fill-opacity:1;fill-rule:nonzero;stroke:none;stroke-width:1;marker:none;visibility:visible;display:inline;overflow:visible;enable-background:accumulate" />
    </g>
  </g>
</svg>
