<?xml version="1.0" encoding="UTF-8" standalone="no"?>
<svg
   xmlns:dc="http://purl.org/dc/elements/1.1/"
   xmlns:cc="http://creativecommons.org/ns#"
   xmlns:rdf="http://www.w3.org/1999/02/22-rdf-syntax-ns#"
   xmlns:svg="http://www.w3.org/2000/svg"
   xmlns="http://www.w3.org/2000/svg"
   xmlns:xlink="http://www.w3.org/1999/xlink"
   version="1.0"
   width="50"
   height="28"
   id="svg3169">
  <defs
     id="defs3171">
    <linearGradient
       id="linearGradient3203">
      <stop
         id="stop3205"
         style="stop-color:#000000;stop-opacity:1"
         offset="0" />
      <stop
         id="stop3207"
         style="stop-color:#000000;stop-opacity:0"
         offset="1" />
    </linearGradient>
    <linearGradient
       id="linearGradient4129">
      <stop
         id="stop4131"
         style="stop-color:#71ffe1;stop-opacity:1"
         offset="0" />
      <stop
         id="stop4133"
         style="stop-color:#00c85e;stop-opacity:1"
         offset="1" />
    </linearGradient>
    <linearGradient
       x1="8"
       y1="20"
       x2="8"
       y2="40"
       id="linearGradient3254"
       xlink:href="#linearGradient3203"
       gradientUnits="userSpaceOnUse"
       gradientTransform="matrix(0.7954951,-0.7954951,0.7071068,0.7071068,3.5402502,14.424404)" />
    <radialGradient
       cx="111.07143"
       cy="70.219322"
       r="13.928572"
       fx="111.07143"
       fy="70.219322"
       id="radialGradient3272"
       xlink:href="#linearGradient4129"
       gradientUnits="userSpaceOnUse" />
  </defs>
  <metadata
     id="metadata3174">
    <rdf:RDF>
      <cc:Work
         rdf:about="">
        <dc:format>image/svg+xml</dc:format>
        <dc:type
           rdf:resource="http://purl.org/dc/dcmitype/StillImage" />
        <dc:title></dc:title>
      </cc:Work>
    </rdf:RDF>
  </metadata>
  <g
     id="layer1">
    <path
       d="M 5,2e-7 5,14 c 0,5.45663 2.202995,10.39035 5.75,14 l 28.5,0 C 42.79701,24.39035 45,19.45663 45,14 L 45,2e-7 5,2e-7 z"
       id="path3513"
       style="color:#000000;fill:#333333;fill-opacity:1;fill-rule:nonzero;stroke:none;stroke-width:2;marker:none;visibility:visible;display:inline;overflow:visible;enable-background:accumulate" />
    <g
       transform="translate(0,-11)"
       id="g3250">
      <path
         d="m 25,14 c -2.484,0 -5.734,0.008 -7.363,1.637 C 16.008,17.266 16,20.516 16,23 l 1,2 c 0,-4.416 3.583999,-8 8,-8 4.416001,0 8,3.584 8,8 l 1,-2 C 34,20.516 33.992,17.266 32.363,15.637 30.734,14.008 27.484,14 25,14 z"
         id="path3185"
         style="color:#000000;fill:#000000;fill-opacity:1;fill-rule:nonzero;stroke:none;stroke-width:2;marker:none;visibility:visible;display:inline;overflow:visible;enable-background:accumulate" />
      <path
         d="M 30.410307,15.838617 44.552443,29.980753 35.188482,38.344714 27.753453,38.637607 17.682385,28.566539 30.410307,15.838617 z"
         id="rect3192"
         style="color:#000000;fill:url(#linearGradient3254);fill-opacity:1;fill-rule:nonzero;stroke:none;stroke-width:2;marker:none;visibility:visible;display:inline;overflow:visible;enable-background:accumulate" />
    </g>
    <path
       d="m 125,70.219322 a 13.928572,13.928572 0 1 1 -27.857145,0 13.928572,13.928572 0 1 1 27.857145,0 z"
       transform="matrix(0.574359,0,0,0.574359,-38.794873,-26.331097)"
       id="path3140"
       style="color:#000000;fill:url(#radialGradient3272);fill-opacity:1;fill-rule:nonzero;stroke:none;stroke-width:1;marker:none;visibility:visible;display:inline;overflow:visible;enable-background:accumulate" />
  </g>
</svg>
